<svg xmlns="http://www.w3.org/2000/svg" style="display:none">

  <!-- HOME -->
  <symbol id="home" viewBox="0 0 24 24">
    <path d="M3 12L12 3l9 9M5 10v9a1 1 0 001 1h4v-4h4v4h4a1 1 0 001-1v-9" fill="none" stroke="currentColor" stroke-width="2" stroke-linecap="round" stroke-linejoin="round"/>
  </symbol>

  <!-- USER -->
  <symbol id="user" viewBox="0 0 24 24">
    <circle cx="12" cy="8" r="4" fill="none" stroke="currentColor" stroke-width="2"/>
    <path d="M4 20c0-4 3.6-7 8-7s8 3 8 7" fill="none" stroke="currentColor" stroke-width="2" stroke-linecap="round"/>
  </symbol>

  <!-- SEARCH -->
  <symbol id="search" viewBox="0 0 24 24">
    <circle cx="10.5" cy="10.5" r="6.5" fill="none" stroke="currentColor" stroke-width="2"/>
    <line x1="15.5" y1="15.5" x2="21" y2="21" stroke="currentColor" stroke-width="2" stroke-linecap="round"/>
  </symbol>

  <!-- CART -->
  <symbol id="cart" viewBox="0 0 24 24">
    <path d="M6 2L3 6v14a2 2 0 002 2h14a2 2 0 002-2V6l-3-4z" fill="none" stroke="currentColor" stroke-width="2" stroke-linecap="round" stroke-linejoin="round"/>
    <line x1="3" y1="6" x2="21" y2="6" stroke="currentColor" stroke-width="2"/>
    <path d="M16 10a4 4 0 01-8 0" fill="none" stroke="currentColor" stroke-width="2" stroke-linecap="round"/>
  </symbol>

  <!-- HEART -->
  <symbol id="heart" viewBox="0 0 24 24">
    <path d="M20.8 4.6a5.5 5.5 0 00-7.8 0L12 5.6l-1-1a5.5 5.5 0 00-7.8 7.8l1 1L12 21l7.8-7.8 1-1a5.5 5.5 0 000-7.6z" fill="none" stroke="currentColor" stroke-width="2" stroke-linecap="round" stroke-linejoin="round"/>
  </symbol>

  <!-- STAR -->
  <symbol id="star" viewBox="0 0 24 24">
    <polygon points="12,2 15.1,8.3 22,9.3 17,14.1 18.2,21 12,17.8 5.8,21 7,14.1 2,9.3 8.9,8.3"  stroke-width="2" stroke-linecap="round" stroke-linejoin="round"/>
  </symbol>

  <!-- MAIL -->
  <symbol id="mail" viewBox="0 0 24 24">
    <rect x="2" y="4" width="20" height="16" rx="2" fill="none" stroke="currentColor" stroke-width="2"/>
    <polyline points="2,4 12,13 22,4" fill="none" stroke="currentColor" stroke-width="2" stroke-linecap="round" stroke-linejoin="round"/>
  </symbol>

  <!-- PHONE -->
  <symbol id="phone" viewBox="0 0 24 24">
    <path d="M22 16.9v3a2 2 0 01-2.2 2 19.8 19.8 0 01-8.6-3.1 19.5 19.5 0 01-6-6A19.8 19.8 0 012.1 4.2 2 2 0 014.1 2h3a2 2 0 012 1.7c.1 1 .4 2 .7 2.9a2 2 0 01-.5 2.1L8.1 9.9a16 16 0 006 6l1.2-1.2a2 2 0 012.1-.5c.9.3 1.9.6 2.9.7A2 2 0 0122 16.9z" fill="none" stroke="currentColor" stroke-width="2" stroke-linecap="round" stroke-linejoin="round"/>
  </symbol>

  <!-- SETTINGS -->
  <symbol id="settings" viewBox="0 0 24 24">
    <circle cx="12" cy="12" r="3" fill="none" stroke="currentColor" stroke-width="2"/>
    <path d="M19.4 15a1.65 1.65 0 00.33 1.82l.06.06a2 2 0 010 2.83 2 2 0 01-2.83 0l-.06-.06a1.65 1.65 0 00-1.82-.33 1.65 1.65 0 00-1 1.51V21a2 2 0 01-4 0v-.09A1.65 1.65 0 009 19.4a1.65 1.65 0 00-1.82.33l-.06.06a2 2 0 01-2.83-2.83l.06-.06A1.65 1.65 0 004.68 15a1.65 1.65 0 00-1.51-1H3a2 2 0 010-4h.09A1.65 1.65 0 004.6 9a1.65 1.65 0 00-.33-1.82l-.06-.06a2 2 0 012.83-2.83l.06.06A1.65 1.65 0 009 4.68a1.65 1.65 0 001-1.51V3a2 2 0 014 0v.09a1.65 1.65 0 001 1.51 1.65 1.65 0 001.82-.33l.06-.06a2 2 0 012.83 2.83l-.06.06A1.65 1.65 0 0019.4 9a1.65 1.65 0 001.51 1H21a2 2 0 010 4h-.09a1.65 1.65 0 00-1.51 1z" fill="none" stroke="currentColor" stroke-width="2"/>
  </symbol>

  <!-- CALENDAR -->
  <symbol id="calendar" viewBox="0 0 24 24">
    <rect x="3" y="4" width="18" height="18" rx="2" fill="none" stroke="currentColor" stroke-width="2"/>
    <line x1="16" y1="2" x2="16" y2="6" stroke="currentColor" stroke-width="2" stroke-linecap="round"/>
    <line x1="8" y1="2" x2="8" y2="6" stroke="currentColor" stroke-width="2" stroke-linecap="round"/>
    <line x1="3" y1="10" x2="21" y2="10" stroke="currentColor" stroke-width="2"/>
  </symbol>

  <!-- BELL -->
  <symbol id="bell" viewBox="0 0 24 24">
    <path d="M18 8A6 6 0 006 8c0 7-3 9-3 9h18s-3-2-3-9M13.7 21a2 2 0 01-3.4 0" fill="none" stroke="currentColor" stroke-width="2" stroke-linecap="round" stroke-linejoin="round"/>
  </symbol>

  <!-- LOCK -->
  <symbol id="lock" viewBox="0 0 24 24">
    <rect x="3" y="11" width="18" height="11" rx="2" fill="none" stroke="currentColor" stroke-width="2"/>
    <path d="M7 11V7a5 5 0 0110 0v4" fill="none" stroke="currentColor" stroke-width="2" stroke-linecap="round"/>
  </symbol>

  <!-- DOWNLOAD -->
  <symbol id="download" viewBox="0 0 24 24">
    <path d="M21 15v4a2 2 0 01-2 2H5a2 2 0 01-2-2v-4M7 10l5 5 5-5M12 15V3" fill="none" stroke="currentColor" stroke-width="2" stroke-linecap="round" stroke-linejoin="round"/>
  </symbol>

  <!-- UPLOAD -->
  <symbol id="upload" viewBox="0 0 24 24">
    <path d="M21 15v4a2 2 0 01-2 2H5a2 2 0 01-2-2v-4M17 8l-5-5-5 5M12 3v12" fill="none" stroke="currentColor" stroke-width="2" stroke-linecap="round" stroke-linejoin="round"/>
  </symbol>

  <!-- TRASH -->
  <symbol id="trash" viewBox="0 0 24 24">
    <polyline points="3,6 5,6 21,6" fill="none" stroke="currentColor" stroke-width="2" stroke-linecap="round" stroke-linejoin="round"/>
    <path d="M19 6l-1 14a2 2 0 01-2 2H8a2 2 0 01-2-2L5 6M10 11v6M14 11v6M9 6V4a1 1 0 011-1h4a1 1 0 011 1v2" fill="none" stroke="currentColor" stroke-width="2" stroke-linecap="round" stroke-linejoin="round"/>
  </symbol>

  <!-- EDIT -->
  <symbol id="edit" viewBox="0 0 24 24">
    <path d="M11 4H4a2 2 0 00-2 2v14a2 2 0 002 2h14a2 2 0 002-2v-7" fill="none" stroke="currentColor" stroke-width="2" stroke-linecap="round" stroke-linejoin="round"/>
    <path d="M18.5 2.5a2.12 2.12 0 013 3L12 15l-4 1 1-4 9.5-9.5z" fill="none" stroke="currentColor" stroke-width="2" stroke-linecap="round" stroke-linejoin="round"/>
  </symbol>

  <!-- SHARE -->
  <symbol id="share" viewBox="0 0 24 24">
    <circle cx="18" cy="5" r="3" fill="none" stroke="currentColor" stroke-width="2"/>
    <circle cx="6" cy="12" r="3" fill="none" stroke="currentColor" stroke-width="2"/>
    <circle cx="18" cy="19" r="3" fill="none" stroke="currentColor" stroke-width="2"/>
    <line x1="8.6" y1="13.5" x2="15.4" y2="17.5" stroke="currentColor" stroke-width="2"/>
    <line x1="15.4" y1="6.5" x2="8.6" y2="10.5" stroke="currentColor" stroke-width="2"/>
  </symbol>

  <!-- MAP PIN -->
  <symbol id="map-pin" viewBox="0 0 24 24">
    <path d="M21 10c0 7-9 13-9 13S3 17 3 10a9 9 0 0118 0z" fill="none" stroke="currentColor" stroke-width="2"/>
    <circle cx="12" cy="10" r="3" fill="none" stroke="currentColor" stroke-width="2"/>
  </symbol>

  <!-- MENU (hamburger) -->
  <symbol id="menu" viewBox="0 0 24 24">
    <line x1="3" y1="6" x2="21" y2="6" stroke="currentColor" stroke-width="2" stroke-linecap="round"/>
    <line x1="3" y1="12" x2="21" y2="12" stroke="currentColor" stroke-width="2" stroke-linecap="round"/>
    <line x1="3" y1="18" x2="21" y2="18" stroke="currentColor" stroke-width="2" stroke-linecap="round"/>
  </symbol>

  <!-- CLOSE (X) -->
  <symbol id="close" viewBox="0 0 24 24">
    <line x1="18" y1="6" x2="6" y2="18" stroke="currentColor" stroke-width="2" stroke-linecap="round"/>
    <line x1="6" y1="6" x2="18" y2="18" stroke="currentColor" stroke-width="2" stroke-linecap="round"/>
  </symbol>

  <!-- CHECK -->
  <symbol id="check" viewBox="0 0 24 24">
    <polyline points="20,6 9,17 4,12" fill="none" stroke="currentColor" stroke-width="2" stroke-linecap="round" stroke-linejoin="round"/>
  </symbol>

  <!-- ARROW RIGHT -->
  <symbol id="arrow-right" viewBox="0 0 24 24">
    <line x1="5" y1="12" x2="19" y2="12" stroke="currentColor" stroke-width="2" stroke-linecap="round"/>
    <polyline points="12,5 19,12 12,19" fill="none" stroke="currentColor" stroke-width="2" stroke-linecap="round" stroke-linejoin="round"/>
  </symbol>

  <!-- WIFI -->
  <symbol id="wifi" viewBox="0 0 24 24">
    <path d="M5 12.5A9.9 9.9 0 0112 10c2.7 0 5.2 1.1 7 2.9" fill="none" stroke="currentColor" stroke-width="2" stroke-linecap="round"/>
    <path d="M8.5 16A5 5 0 0112 14.5a5 5 0 013.5 1.5" fill="none" stroke="currentColor" stroke-width="2" stroke-linecap="round"/>
    <path d="M1.4 9A15.9 15.9 0 0112 5c4.1 0 7.9 1.6 10.6 4.1" fill="none" stroke="currentColor" stroke-width="2" stroke-linecap="round"/>
    <circle cx="12" cy="20" r="1" fill="currentColor"/>
  </symbol>

</svg>
